PathFileType	4	(X/Y/Z)	Run_300 02
DataRate	CameraRate	NumFrames	NumMarkers	Units	OrigDataRate	OrigDataStartFrame	OrigNumFrames
100	100	5	45	mm	100	108	137
Frame#	Time	LASI			RASI			LPSI			RPSI			RTH1			RTH2			RTH3			LTH1			LTH2			LTH3			RTB1			RTB2			RTB3			RLMAL			RMMAL			LTB1			LTB2			LTB3			RCAL			RTOE			RMT5			LCAL			LTOE			LMT5			LACR			RACR			CLAV			C7			LPSH			RUA1			RUA2			RUA3			RLEL			RMEL			LUA1			LUA2			LUA3			LLEL			LMEL			RFAsuperior			RFAradius			RFAulna			LFAsuperior			LFAradius			LFAulna			
		X1	Y1	Z1	X2	Y2	Z2	X3	Y3	Z3	X4	Y4	Z4	X5	Y5	Z5	X6	Y6	Z6	X7	Y7	Z7	X8	Y8	Z8	X9	Y9	Z9	X10	Y10	Z10	X11	Y11	Z11	X12	Y12	Z12	X13	Y13	Z13	X14	Y14	Z14	X15	Y15	Z15	X16	Y16	Z16	X17	Y17	Z17	X18	Y18	Z18	X19	Y19	Z19	X20	Y20	Z20	X21	Y21	Z21	X22	Y22	Z22	X23	Y23	Z23	X24	Y24	Z24	X25	Y25	Z25	X26	Y26	Z26	X27	Y27	Z27	X28	Y28	Z28	X29	Y29	Z29	X30	Y30	Z30	X31	Y31	Z31	X32	Y32	Z32	X33	Y33	Z33	X34	Y34	Z34	X35	Y35	Z35	X36	Y36	Z36	X37	Y37	Z37	X38	Y38	Z38	X39	Y39	Z39	X40	Y40	Z40	X41	Y41	Z41	X42	Y42	Z42	X43	Y43	Z43	X44	Y44	Z44	X45	Y45	Z45	

108	1.53	948.854017	1088.472251	-428.804496	968.732098	1076.741815	-202.109277	792.1523089999999	1117.769725	-353.626513	799.574748	1112.714371	-262.337082	844.231223	814.396854	-160.579202	897.0606790000001	736.399708	-197.933267	809.979776	651.049792	-197.531638	890.757607	861.706738	-482.13549	993.071363	774.236472	-486.431598	970.76791	665.911422	-460.148987	694.15548	448.626905	-241.768193	622.4108179999999	469.51703	-202.892462	517.051527	394.009238	-239.479759	397.017597	392.044744	-226.673717	428.045188	363.286872	-301.192466	1070.639222	449.332278	-423.358483	1000.505093	335.604429	-435.582076	1079.319659	258.013735	-393.554813	363.204677	425.161338	-304.025602	395.116331	215.54658	-231.07974	355.114855	288.952719	-179.36973	995.469239	107.157051	-331.716274	1218.633095	96.671389	-347.759979	1161.47403	62.513781	-412.976043	880.969099	1582.936917	-476.773017	944.322666	1565.155048	-173.178503	991.070161	1507.090734	-314.518961	877.725281	1595.904161	-319.981616	795.371964	1555.939816	-463.882414	911.649116	1424.7095	-74.369505	830.682466	1379.58387	-64.594455	846.343633	1324.038896	-23.63818	864.172827	1255.267158	-5.96298	801.9164019999999	1246.607417	-73.56405700000001	761.696854	1492.203109	-516.846306	698.645567	1434.224946	-473.01959	674.237071	1394.711624	-532.163425	645.897299	1316.521285	-551.90779	644.217939	1310.688407	-460.957545	907.8594859999999	1212.877816	-56.840392	1029.579205	1278.833634	-201.639188	1035.143847	1211.521705	-191.824958	716.988509	1252.646757	-531.031582	888.008835	1287.62576	-511.764642	881.3424649999999	1219.789631	-519.119391	
109	1.54	947.1854049999999	1081.117162	-430.41778	968.10116	1069.625042	-202.381709	790.618879	1109.387065	-353.243414	798.619263	1104.326037	-262.209314	849.93974	804.524854	-161.7735	906.093987	728.357617	-198.238642	821.602629	640.678228	-198.790272	889.10062	854.097261	-480.629442	993.260382	768.506046	-482.508542	970.915358	659.346135	-458.42484	706.210029	443.901569	-241.426339	635.81722	468.738001	-202.98961	526.524013	399.177164	-238.832645	406.941332	403.957769	-225.604015	435.775455	373.516032	-300.253048	1065.036041	439.514492	-420.284424	991.381177	328.709735	-436.670667	1064.314176	247.713041	-391.572715	374.101374	438.593425	-302.631727	396.653115	227.934628	-229.427624	360.838448	303.301485	-177.660351	971.411776	99.639264	-332.734188	1196.030336	85.092923	-342.324663	1138.684401	56.313756	-410.460404	882.5404109999999	1573.825993	-478.645278	943.123336	1558.162855	-173.95965	990.562945	1499.436799	-314.853767	877.281206	1588.448502	-321.116106	796.669637	1546.479994	-467.804921	906.221196	1419.479658	-74.25109	824.16161	1375.757116	-66.852127	837.694285	1320.657732	-24.327336	853.867081	1251.844298	-5.54676	794.14955	1242.978851	-74.45772700000001	764.540763	1480.801787	-522.249271	701.07808	1421.97859	-479.974113	679.5636	1381.06114	-539.303649	653.0510849999999	1302.647205	-559.232743	649.605712	1297.015319	-468.53236	897.800171	1205.497627	-53.232365	1026.868953	1261.8212	-195.803454	1029.93712	1194.643121	-183.400627	724.199661	1239.377846	-536.556604	894.543944	1275.740044	-514.274853	888.55168	1207.872	-521.018137	
110	1.55	945.557774	1072.552284	-432.097623	967.258529	1061.735914	-202.479385	788.3271999999999	1099.720612	-352.932447	797.348939	1095.160137	-262.38154	855.890627	794.235422	-162.516389	915.645101	719.875004	-197.794205	833.959389	629.97247	-199.597631	887.099982	844.927182	-479.638049	993.039934	761.617672	-476.720656	970.599433	651.400919	-456.947391	719.917139	438.53153	-240.674204	651.023825	467.026637	-202.637304	538.411732	403.197636	-238.105711	419.463898	414.19396	-224.42057	446.338934	382.488737	-299.258734	1058.073476	428.265517	-416.888828	979.788372	321.298034	-436.423103	1045.412775	236.89722	-388.34457	387.519258	450.268835	-301.023804	401.942351	238.972472	-228.016928	369.83068	315.75497	-176.039647	942.509002	92.961552	-332.352131	1168.879163	77.37488399999999	-339.067648	1110.813573	54.182535	-408.939575	884.300652	1563.694175	-480.44987	941.627776	1549.932274	-174.517509	990.092308	1490.743394	-315.060031	876.6920229999999	1579.723898	-322.124242	798.24259	1535.812125	-471.472758	900.5765689999999	1413.215382	-74.102148	817.535824	1370.911385	-69.019097	828.942157	1316.275089	-24.994799	843.339158	1247.423317	-5.03854	786.081181	1238.270858	-75.167551	767.808324	1468.358795	-527.635762	704.094972	1408.393808	-487.296372	685.545834	1366.322944	-546.659815	660.974551	1287.835077	-567.0890020000001	655.70499	1282.225343	-476.687671	887.31566	1197.292338	-49.198291	1023.449683	1243.603554	-189.134563	1023.782467	1176.753675	-174.247458	732.029356	1225.082119	-542.7632630000001	901.564756	1262.596123	-516.844835	896.193733	1194.757405	-523.325339	
111	1.56	943.4664	1063.027324	-433.57031	966.152907	1052.772437	-203.014854	784.797539	1089.676003	-352.620794	795.304537	1085.451664	-262.705118	861.900892	783.696973	-162.97423	925.340879	711.0108729999999	-196.723718	846.941647	618.804746	-200.038759	885.056585	835.24027	-479.975243	992.104361	753.464859	-471.800636	969.67884	642.714402	-455.658387	735.229157	432.735898	-239.715011	667.886355	464.357007	-201.899685	552.595206	406.048025	-237.438575	434.424328	422.601081	-223.068321	459.544574	389.960762	-298.036048	1050.361657	417.347156	-412.624064	966.453588	315.063995	-434.213798	1024.520875	227.607078	-383.475837	403.287571	460.049091	-299.259427	410.767322	248.353242	-226.759217	381.855826	326.139729	-174.409827	911.591733	88.745559	-330.584359	1139.464647	73.5313	-337.652886	1080.44825	54.764698	-407.943348	886.074385	1552.90472	-482.324896	939.731083	1540.682691	-174.690848	989.835116	1481.085918	-315.207778	875.9367	1569.915272	-323.230024	800.073594	1523.997349	-474.911952	894.693229	1405.782803	-73.899371	810.85977	1364.954599	-71.027466	820.125673	1310.806238	-25.63355	832.558113	1241.904874	-4.345242	777.775783	1232.527591	-75.75088	771.41949	1454.937845	-532.98442	707.628371	1393.611744	-494.78083	692.210194	1350.705457	-554.1360100000001	669.630883	1272.292674	-575.351299	662.4328410000001	1266.507816	-485.235901	876.3598940000001	1188.383969	-44.889917	1019.256537	1224.464285	-181.511795	1016.653505	1158.170357	-164.085126	740.451899	1209.913886	-549.4636850000001	909.065518	1248.43645	-519.263134	904.260597	1180.642103	-526.023066	
112	1.57	940.3866850000001	1053.089576	-434.768432	964.6386649999999	1042.821843	-204.12836	780.135057	1080.327175	-352.208143	792.208669	1075.618246	-262.969459	867.970904	773.300216	-163.453845	935.007326	702.194442	-195.404797	860.514916	607.392455	-200.346021	883.251269	826.8598009999999	-481.539571	990.235219	744.868259	-469.796463	968.176139	634.644784	-454.498644	752.159545	427.012836	-238.917325	686.289879	460.938401	-200.9691	568.930509	407.831121	-236.850393	451.64488	429.074581	-221.439004	475.173926	395.851165	-296.572898	1042.567445	408.762865	-407.810265	952.563972	311.71945	-430.944533	1003.915202	221.56395	-378.114465	421.193547	467.847921	-297.275261	422.93343	255.814119	-225.611428	396.73158	334.250296	-172.685495	881.301638	87.597739	-328.250537	1110.114576	71.735518	-336.782991	1050.112104	55.899114	-406.793193	887.679066	1542.057103	-484.388326	937.347069	1530.959543	-174.452187	989.8774069999999	1470.910847	-315.325672	875.158775	1559.797874	-324.613259	802.016002	1511.541282	-478.36565	888.548812	1397.14329	-73.660218	804.047911	1357.921297	-72.856971	811.127897	1304.346387	-26.257927	821.374829	1235.46729	-3.392143	769.401046	1225.984512	-76.39696499999999	775.3996529999999	1440.657358	-538.408281	711.533461	1377.913361	-502.196547	699.503679	1334.495536	-561.69156	678.986531	1256.292902	-583.915702	669.753385	1250.105211	-494.029022	864.844305	1178.98549	-40.581583	1014.258539	1204.709294	-172.784666	1008.604779	1139.223014	-152.92916	749.5074	1194.116285	-556.328356	917.104368	1233.576589	-521.419981	912.801057	1165.80522	-528.942526	
